<?xml version="1.0" encoding="utf-8"?>
<!-- Generator: Adobe Illustrator 21.1.0, SVG Export Plug-In . SVG Version: 6.00 Build 0)  -->
<svg version="1.1" id="Layer_1" xmlns="http://www.w3.org/2000/svg" xmlns:xlink="http://www.w3.org/1999/xlink" x="0px" y="0px"
	 viewBox="0 0 103.7 133.9" style="enable-background:new 0 0 103.7 133.9;" xml:space="preserve">
<g>
	<path d="M102.2,82.5C98,93.7,90.2,102.4,79,107V82.5l13.4-12.1L79,58.5V41.7c12.2-0.9,20.7-9.9,20.7-20.9
		c0-14.4-13.8-19.5-21.6-19.5c-1.7,0-3.6,0-6.3,0.7v0.7c1,0,2.5-0.2,3.1-0.2c5.4,0,9.5,2.5,9.5,7.5c0,3.7-3.1,7.5-8.5,7.5
		c-13.4,0-29.2-10.9-46.4-10.9C14.2,6.5,3.6,17.9,3.6,29.5c0,11.4,6.6,15.1,13.6,17.7l0.2-0.7c-2.2-1.4-3.7-3.7-3.7-7.5
		c0-5.1,4.8-9.3,10.7-9.3c14.5,0,37.7,12.1,52.2,12.1h1.4v17L64.5,70.4l13.4,12.1v24.8c-5.6,2-11.4,2.9-17.3,2.9
		c-22.4,0-36.7-13.6-36.7-36.2c0-5.4,0.7-10.7,2.2-15.8l11.2-4.9v50l22.8-10V42.1L26.6,57C30,47.2,37,40,45.3,35.9l-0.2-0.5
		C22.7,40.4,0.9,57.4,0.9,82.9c0,29.4,24.8,49.8,53.7,49.8c30.6,0,47.9-20.4,48.1-50.2H102.2L102.2,82.5z"/>
</g>
</svg>
