<?xml version="1.0" standalone="no"?>
<!DOCTYPE svg PUBLIC "-//W3C//DTD SVG 20010904//EN"
 "http://www.w3.org/TR/2001/REC-SVG-20010904/DTD/svg10.dtd">
<svg version="1.0" xmlns="http://www.w3.org/2000/svg"
 width="256.000000pt" height="256.000000pt" viewBox="0 0 256.000000 256.000000"
 preserveAspectRatio="xMidYMid meet">
<metadata>
Created by potrace 1.16, written by Peter Selinger 2001-2019
</metadata>
<g transform="translate(0.000000,256.000000) scale(0.100000,-0.100000)"
fill="#000000" stroke="none">
<path d="M788 1913 l-248 -116 0 -596 0 -597 69 -34 c39 -18 77 -33 86 -33 9
0 47 15 86 33 l69 34 0 216 0 216 173 80 172 80 3 107 c2 82 0 107 -10 107 -7
0 -79 -31 -160 -69 -81 -38 -156 -72 -168 -76 -20 -6 -20 -3 -20 153 l0 159
178 80 177 80 3 112 3 111 -77 35 c-42 19 -79 35 -83 35 -3 0 -117 -53 -253
-117z"/>
<path d="M1598 1913 l-248 -116 0 -597 0 -597 80 -36 80 -36 78 37 77 38 5
217 5 218 170 79 170 79 -4 103 c-2 57 -5 105 -7 107 -1 2 -76 -31 -166 -73
-90 -42 -167 -76 -171 -76 -4 0 -7 71 -7 159 l0 158 178 80 177 80 3 111 3
112 -68 30 c-37 17 -76 33 -88 35 -11 2 -124 -45 -267 -112z"/>
</g>
</svg>
