<?xml version="1.0" standalone="no"?>
<!DOCTYPE svg PUBLIC "-//W3C//DTD SVG 20010904//EN"
 "http://www.w3.org/TR/2001/REC-SVG-20010904/DTD/svg10.dtd">
<svg version="1.0" xmlns="http://www.w3.org/2000/svg"
 width="800.000000pt" height="450.000000pt" viewBox="0 0 800.000000 450.000000"
 preserveAspectRatio="xMidYMid meet">
<metadata>
Created by potrace 1.16, written by Peter Selinger 2001-2019
</metadata>
<g transform="translate(0.000000,450.000000) scale(0.100000,-0.100000)"
fill="#000000" stroke="none">
<path d="M2855 3204 c-166 -22 -248 -66 -313 -168 -56 -88 -73 -161 -79 -343
l-6 -161 -84 -4 c-75 -3 -87 -6 -104 -27 -25 -31 -24 -63 4 -89 20 -19 35 -22
105 -22 l82 0 0 -528 c0 -518 0 -529 20 -550 27 -29 73 -29 100 0 20 21 20 32
20 550 l0 528 193 0 c181 0 195 1 215 20 28 26 28 71 1 96 -19 17 -41 19 -216
22 l-195 3 4 157 c6 190 20 247 82 308 49 50 89 63 215 71 72 5 98 10 113 25
23 23 23 70 -1 92 -19 18 -99 28 -156 20z"/>
<path d="M4107 3182 c-15 -16 -17 -58 -19 -338 l-3 -319 -85 -3 c-97 -3 -120
-16 -120 -68 0 -50 28 -64 127 -64 l83 0 0 -350 c0 -279 3 -366 16 -427 47
-230 170 -323 424 -323 79 0 92 3 110 22 25 27 26 62 1 87 -14 14 -40 20 -112
26 -138 10 -190 27 -233 76 -59 70 -66 122 -66 533 l0 356 193 0 c105 0 197 4
203 8 15 10 34 47 34 66 0 9 -9 25 -20 36 -19 19 -33 20 -215 20 l-195 0 0
304 c0 298 -5 350 -33 368 -22 14 -74 8 -90 -10z"/>
<path d="M5027 3182 c-16 -17 -17 -79 -17 -688 0 -551 3 -680 15 -731 46 -197
196 -365 390 -439 84 -32 248 -44 346 -25 225 45 415 229 475 461 25 98 16
272 -19 363 -159 413 -679 540 -1001 246 -35 -32 -67 -59 -70 -59 -3 0 -6 193
-6 428 0 403 -1 430 -18 445 -25 22 -75 21 -95 -1z m728 -806 c155 -41 280
-157 336 -312 31 -85 31 -225 0 -314 -59 -170 -204 -290 -389 -322 -193 -33
-407 75 -502 253 -145 272 4 613 303 694 67 18 188 19 252 1z"/>
<path d="M7290 3190 c-13 -8 -16 -60 -20 -337 l-5 -328 -85 -5 c-101 -6 -121
-15 -122 -58 -2 -56 23 -71 121 -74 l86 -3 5 -400 c6 -375 7 -404 27 -456 65
-173 179 -239 413 -239 96 0 123 14 123 65 0 48 -25 62 -126 70 -145 11 -187
22 -229 64 -68 69 -73 103 -73 526 l0 370 196 3 c181 2 198 4 214 22 23 26 22
80 -2 94 -10 6 -101 13 -213 16 l-195 5 -3 319 c-2 280 -4 322 -19 338 -17 19
-68 24 -93 8z"/>
<path d="M1133 2654 c-41 -21 -66 -73 -57 -119 15 -82 121 -114 183 -56 26 24
31 36 31 75 0 86 -82 138 -157 100z"/>
<path d="M3423 2520 c-12 -5 -26 -18 -32 -29 -8 -13 -11 -203 -11 -581 0 -561
2 -591 34 -612 22 -15 66 -8 86 14 20 21 20 32 20 594 0 530 -1 573 -17 592
-22 25 -51 33 -80 22z"/>
<path d="M6640 2523 c-8 -3 -23 -12 -32 -21 -17 -14 -18 -55 -18 -592 0 -566
0 -577 20 -598 26 -28 71 -28 96 -1 18 20 19 46 22 563 2 297 0 559 -3 582 -4
30 -13 44 -34 57 -16 9 -31 17 -33 16 -1 0 -10 -3 -18 -6z"/>
<path d="M127 2310 c-39 -34 -49 -67 -35 -117 27 -97 180 -95 207 3 30 110
-88 188 -172 114z"/>
<path d="M470 2323 c-46 -31 -63 -76 -49 -128 26 -93 160 -101 203 -12 22 47
12 90 -31 127 -39 35 -85 39 -123 13z"/>
<path d="M802 2327 c-73 -41 -75 -154 -3 -191 81 -43 164 7 163 98 -1 78 -92
130 -160 93z"/>
<path d="M1131 2327 c-38 -19 -64 -71 -57 -111 18 -96 126 -129 191 -58 39 42
35 104 -9 148 -37 37 -80 44 -125 21z"/>
<path d="M1454 2321 c-43 -26 -60 -71 -45 -121 27 -90 138 -107 198 -30 15 19
17 81 2 113 -24 53 -99 72 -155 38z"/>
<path d="M1130 1997 c-14 -7 -33 -29 -44 -51 -33 -68 4 -141 78 -153 77 -12
134 45 123 125 -10 77 -86 115 -157 79z"/>
</g>
</svg>
