<?xml version="1.0" standalone="no"?>
<!DOCTYPE svg PUBLIC "-//W3C//DTD SVG 20010904//EN"
 "http://www.w3.org/TR/2001/REC-SVG-20010904/DTD/svg10.dtd">
<svg version="1.0" xmlns="http://www.w3.org/2000/svg"
 width="1024.000000pt" height="1024.000000pt" viewBox="0 0 1024.000000 1024.000000"
 preserveAspectRatio="xMidYMid meet">
<metadata>
Created by potrace 1.16, written by Peter Selinger 2001-2019
</metadata>
<g transform="translate(0.000000,1024.000000) scale(0.030723,-0.061428)"
fill="#000000" stroke="none">
<path d="M18049 10529 c-141 -20 -315 -78 -437 -145 -34 -19 -65 -34 -67 -34
-3 0 -5 25 -5 55 l0 55 -292 0 -291 0 74 -51 c96 -67 280 -253 346 -350 66
-96 133 -230 170 -336 15 -46 30 -83 33 -83 3 1 21 24 40 51 92 132 269 262
412 304 140 40 327 36 466 -11 197 -65 386 -246 473 -453 58 -139 59 -146 59
-843 l0 -638 301 0 300 0 -4 653 c-3 614 -5 657 -24 742 -96 418 -348 752
-714 945 -115 60 -272 113 -398 134 -101 17 -343 20 -442 5z"/>
<path d="M14573 10443 l-203 -3 0 -250 0 -250 201 0 200 0 -4 -627 c-3 -456
-7 -641 -16 -676 -20 -74 -68 -137 -131 -172 -54 -29 -58 -30 -180 -28 -69 2
-138 4 -153 5 l-29 3 -70 -203 c-39 -112 -66 -208 -62 -212 14 -13 180 -59
258 -71 113 -18 346 -6 431 21 255 82 434 279 522 576 15 53 18 129 23 724 l5
665 365 3 c203 1 408 -2 462 -7 169 -18 293 -77 413 -196 121 -119 188 -257
204 -418 33 -336 -152 -637 -457 -743 -99 -34 -216 -44 -540 -44 -218 0 -283
-3 -286 -12 -38 -142 -53 -186 -87 -255 -23 -46 -68 -114 -100 -153 l-59 -70
534 0 c639 0 688 5 908 100 346 149 605 484 673 874 19 114 19 328 0 442 -44
248 -159 463 -346 645 -192 187 -450 308 -687 324 -94 6 -1509 12 -1789 8z"/>
<path d="M17507 8722 c-92 -229 -290 -462 -519 -613 l-86 -57 45 -6 c25 -3
169 -6 319 -6 l274 0 0 375 c0 206 -1 375 -2 375 -2 0 -15 -31 -31 -68z"/>
<path d="M12130 5926 c-118 -25 -170 -80 -170 -180 0 -122 70 -171 263 -182
109 -6 152 -17 161 -41 9 -21 -11 -52 -40 -63 -48 -19 -226 -11 -356 16 l-28
6 0 -70 c0 -56 3 -71 17 -76 9 -4 74 -12 145 -18 204 -19 336 10 391 84 22 29
34 118 23 162 -10 42 -63 93 -114 110 -26 9 -94 19 -152 23 -132 8 -150 14
-150 52 0 24 6 31 31 40 55 19 258 10 342 -15 15 -5 17 3 17 65 0 80 5 76
-110 91 -98 12 -202 11 -270 -4z"/>
<path d="M14760 5934 c-19 -2 -59 -7 -87 -10 l-53 -5 0 -294 0 -294 48 -7 c26
-5 117 -8 202 -8 188 -1 248 13 315 75 62 57 80 110 80 234 0 124 -18 177 -80
234 -59 54 -121 72 -270 76 -66 2 -136 1 -155 -1z m287 -158 c47 -28 58 -58
58 -151 0 -143 -30 -168 -207 -173 l-118 -4 0 177 0 177 118 -4 c93 -3 124 -7
149 -22z"/>
<path d="M17190 5934 c-19 -2 -59 -7 -87 -10 l-53 -5 0 -294 0 -294 48 -7 c26
-5 117 -8 202 -8 188 -1 248 13 315 75 62 57 80 110 80 234 0 124 -18 177 -80
234 -59 54 -121 72 -270 76 -66 2 -136 1 -155 -1z m287 -158 c47 -28 58 -58
58 -151 0 -143 -30 -168 -207 -173 l-118 -4 0 177 0 177 118 -4 c93 -3 124 -7
149 -22z"/>
<path d="M19020 5926 c-81 -17 -144 -58 -177 -114 -27 -45 -28 -52 -28 -187 0
-135 1 -142 28 -187 60 -104 230 -151 421 -117 138 24 209 95 227 229 23 163
-20 290 -116 342 -85 46 -235 60 -355 34z m248 -146 c53 -24 72 -64 72 -155 0
-91 -19 -131 -72 -155 -63 -29 -179 -27 -238 3 -53 26 -69 61 -69 152 0 91 16
126 69 153 59 29 175 31 238 2z"/>
<path d="M19765 5934 c-27 -2 -74 -6 -102 -10 l-53 -5 0 -295 0 -294 80 0 80
0 0 101 0 102 38 -7 c20 -3 62 -6 92 -6 l55 0 58 -95 59 -95 74 0 c69 0 74 1
74 22 0 11 -23 57 -51 100 l-51 80 40 36 c47 44 67 115 56 200 -8 69 -38 111
-98 141 -43 21 -64 25 -175 26 -69 2 -148 1 -176 -1z m273 -150 c26 -18 30
-74 6 -98 -23 -24 -48 -27 -164 -24 l-105 3 -3 54 c-2 29 -1 60 2 67 8 21 233
20 264 -2z"/>
<path d="M10920 5705 c0 -263 5 -251 -112 -243 l-68 5 0 -68 0 -68 46 -7 c104
-15 226 21 268 79 20 27 21 45 24 278 l3 249 -80 0 -81 0 0 -225z"/>
<path d="M11200 5729 c0 -243 7 -277 69 -339 61 -61 112 -75 262 -75 108 1
120 3 175 30 71 36 110 87 124 164 5 29 10 136 10 237 l0 184 -80 0 -80 0 0
-197 c0 -138 -4 -206 -13 -223 -22 -44 -71 -61 -165 -58 -80 3 -85 4 -113 36
l-29 32 0 205 0 205 -80 0 -80 0 0 -201z"/>
<path d="M12630 5860 l0 -70 115 0 115 0 0 -230 0 -230 80 0 80 0 0 230 0 230
115 0 115 0 0 70 0 70 -310 0 -310 0 0 -70z"/>
<path d="M13340 5630 l0 -300 80 0 80 0 0 300 0 300 -80 0 -80 0 0 -300z"/>
<path d="M13630 5630 l0 -300 80 0 80 0 2 192 3 191 155 -191 155 -192 78 0
77 0 0 300 0 300 -75 0 -75 0 0 -192 c0 -227 23 -229 -177 17 l-138 170 -83 3
-82 3 0 -301z"/>
<path d="M15452 5648 c-73 -156 -132 -291 -132 -301 0 -16 8 -18 72 -15 l72 3
22 55 22 55 154 3 155 2 24 -60 24 -60 72 0 c63 0 73 2 72 18 0 9 -60 143
-133 297 l-132 280 -80 3 -80 3 -132 -283z m293 -47 c6 -20 4 -21 -84 -21
l-90 0 26 58 c14 31 34 77 45 102 l20 45 38 -81 c21 -45 41 -91 45 -103z"/>
<path d="M15980 5913 c0 -10 59 -145 132 -301 l132 -283 80 3 80 3 132 280
c73 154 133 288 133 298 1 15 -9 17 -73 17 -72 0 -74 -1 -84 -27 -32 -91 -186
-423 -193 -416 -4 4 -50 105 -102 223 l-94 215 -72 3 c-63 3 -71 1 -71 -15z"/>
<path d="M16760 5630 l0 -300 80 0 80 0 0 300 0 300 -80 0 -80 0 0 -300z"/>
<path d="M18040 5630 l0 -300 80 0 80 0 2 192 3 191 155 -191 155 -192 78 0
77 0 0 300 0 300 -75 0 -75 0 0 -192 c0 -227 23 -229 -177 17 l-138 170 -83 3
-82 3 0 -301z"/>
<path d="M20350 5630 l0 -300 80 0 80 0 2 178 3 177 80 -112 80 -113 45 0 46
0 79 113 80 112 3 -177 2 -178 80 0 80 0 0 300 0 300 -79 0 -80 0 -102 -150
c-56 -83 -106 -149 -110 -148 -5 2 -52 68 -106 148 l-98 145 -83 3 -82 3 0
-301z"/>
<path d="M21322 5648 c-73 -156 -132 -291 -132 -301 0 -16 8 -18 72 -15 l72 3
22 55 22 55 154 3 155 2 24 -60 24 -60 72 0 c63 0 73 2 72 18 0 9 -60 143
-133 297 l-132 280 -80 3 -80 3 -132 -283z m293 -47 c6 -20 4 -21 -84 -21
l-90 0 26 58 c14 31 34 77 45 102 l20 45 38 -81 c21 -45 41 -91 45 -103z"/>
<path d="M21970 5630 l0 -300 80 0 80 0 2 192 3 191 155 -191 155 -192 78 0
77 0 0 300 0 300 -75 0 -75 0 0 -192 c0 -227 23 -229 -177 17 l-138 170 -83 3
-82 3 0 -301z"/>
</g>
</svg>
