<svg version="1.1" id="Layer_1" xmlns="http://www.w3.org/2000/svg" xmlns:xlink="http://www.w3.org/1999/xlink" x="0px" y="0px"
	 width="100%" viewBox="0 0 572 164" enable-background="new 0 0 572 164" xml:space="preserve">
<path fill="#1B143A" opacity="1.000000" stroke="none" 
	d="
M406.000000,165.000000 
	C270.666656,165.000000 135.833328,165.000000 1.000000,165.000000 
	C1.000000,110.333336 1.000000,55.666668 1.000000,1.000000 
	C191.666672,1.000000 382.333344,1.000000 573.000000,1.000000 
	C573.000000,55.666668 573.000000,110.333336 573.000000,165.000000 
	C517.500000,165.000000 462.000000,165.000000 406.000000,165.000000 
M405.480804,161.003082 
	C400.059540,140.760223 394.638306,120.517357 389.108215,99.868118 
	C391.524628,99.542061 393.304230,99.267899 395.091949,99.065811 
	C422.879669,95.924828 442.704559,75.305496 443.880920,47.860661 
	C444.550873,32.230518 439.939362,18.429058 425.372467,10.836699 
	C417.916290,6.950478 409.089020,4.202169 400.743988,3.801436 
	C378.132294,2.715609 355.433105,3.567299 332.798157,2.790499 
	C324.136780,2.493253 317.961761,3.620063 316.558197,13.362191 
	C316.513519,13.672084 316.234497,13.941193 316.109222,14.247509 
	C312.127747,23.983437 308.151825,33.721622 304.020142,43.838768 
	C325.449982,43.838768 346.112030,43.832096 366.774078,43.842129 
	C374.772766,43.846016 382.772064,43.837967 390.769928,43.933014 
	C394.831512,43.981281 398.209839,45.676392 398.752441,49.932396 
	C399.295563,54.192616 397.527435,58.010307 393.102142,59.329605 
	C389.674164,60.351559 385.980377,60.910175 382.401093,60.927841 
	C356.236481,61.057030 330.066467,61.253632 303.909119,60.799202 
	C298.101837,60.698315 295.948090,62.836033 294.011993,67.656654 
	C284.423676,91.530685 274.536804,115.284782 264.766785,139.085938 
	C261.546112,146.932053 258.360321,154.792465 255.070526,162.862396 
	C274.391937,162.862396 293.042328,162.862396 311.777252,162.862396 
	C317.198883,144.585114 322.630707,126.425262 327.958893,108.235054 
	C330.042969,101.120064 332.806763,98.062019 337.296356,98.413940 
	C341.980957,98.781151 343.731873,101.271461 344.930389,108.977295 
	C347.707703,126.834190 350.529663,144.684128 353.353271,162.662598 
	C354.174225,162.792191 354.808716,162.979065 355.443420,162.979828 
	C371.275848,162.998932 387.108368,163.018692 402.940521,162.950073 
	C403.873993,162.946014 404.804260,162.202011 405.480804,161.003082 
M534.500000,2.997904 
	C518.168640,2.997941 501.836975,3.046967 485.506226,2.948556 
	C482.863647,2.932631 481.331085,3.449283 480.344818,6.255767 
	C478.422211,11.726683 475.936249,16.998083 473.727997,22.370377 
	C457.889526,60.902523 442.054932,99.436249 426.237427,137.977005 
	C422.880615,146.156082 419.599304,154.366135 416.105560,163.000977 
	C433.995514,163.000977 451.152618,163.091034 468.304504,162.834076 
	C469.713135,162.812988 471.749298,160.691238 472.370483,159.105499 
	C477.035034,147.197617 481.369904,135.160965 485.955811,123.221375 
	C486.457733,121.914619 487.873474,120.023399 488.902710,119.999344 
	C499.190186,119.758881 509.485504,119.853333 520.211182,119.853333 
	C518.546692,134.464615 516.942200,148.549072 515.337219,162.637787 
	C534.433716,162.637787 552.993774,162.637787 571.592773,162.637787 
	C571.592773,109.348282 571.592773,56.423424 571.592773,2.997904 
	C559.402832,2.997904 547.451416,2.997904 534.500000,2.997904 
M96.940308,158.703247 
	C101.459396,147.819870 106.005730,136.947723 110.492325,126.050964 
	C122.495155,96.899254 134.478745,67.739616 146.456604,38.577625 
	C151.278305,26.838432 156.065094,15.084906 161.006943,2.997489 
	C143.272995,2.997489 126.116127,2.908851 108.964066,3.155262 
	C107.492744,3.176399 105.304558,5.134813 104.712997,6.677761 
	C97.407768,25.731508 90.336975,44.875149 83.207085,63.996113 
	C76.880074,80.963890 70.560379,97.934410 64.225914,114.899399 
	C61.700428,121.663155 58.352428,124.170334 53.554092,122.944931 
	C49.378410,121.878548 48.326862,119.309464 49.007282,111.836571 
	C49.022385,111.670700 49.034225,111.504478 49.052132,111.338921 
	C51.574078,88.019180 54.101482,64.700020 56.616779,41.379562 
	C57.981796,28.723883 59.326229,16.065981 60.689053,3.323948 
	C40.967747,3.323948 21.740650,3.323948 2.524204,3.323948 
	C2.524204,56.690956 2.524204,109.730179 2.524204,163.001190 
	C32.866455,163.001190 62.845951,163.044937 92.823898,162.850342 
	C94.098358,162.842072 95.358490,160.625000 96.940308,158.703247 
M150.743805,73.104996 
	C138.450119,102.904701 126.156441,132.704407 113.696999,162.905899 
	C154.933914,162.905899 195.248001,162.905899 235.953293,162.905899 
	C242.053833,148.150223 248.181137,133.329803 254.589981,117.828453 
	C252.094467,117.828453 250.312622,117.828445 248.530777,117.828445 
	C230.533798,117.828430 212.536789,117.840118 194.539856,117.811935 
	C192.550140,117.808815 190.190948,118.209091 188.655365,117.309242 
	C186.167953,115.851616 183.135666,113.839867 182.304703,111.392715 
	C181.105438,107.860901 182.435852,103.837280 186.511841,102.355194 
	C189.559540,101.247017 192.945267,100.636589 196.193207,100.583458 
	C213.014206,100.308266 229.839417,100.297386 246.662918,100.163055 
	C251.650803,100.123230 257.687469,101.662521 261.318451,99.395226 
	C264.683350,97.294067 265.546783,91.103096 267.386353,86.661140 
	C270.842926,78.314568 274.209106,69.930557 277.842377,60.997852 
	C275.237152,60.997852 273.426636,60.997849 271.616150,60.997849 
	C237.288574,60.997849 202.953613,61.390316 168.638199,60.744362 
	C159.087692,60.564583 152.723892,62.144527 150.743805,73.104996 
M215.500000,2.996054 
	C207.178558,2.996054 198.857117,2.996055 190.535675,2.996055 
	C178.946808,2.996053 178.863983,2.961682 174.444016,13.612619 
	C170.400574,23.356239 166.562607,33.185123 162.468094,43.390125 
	C163.718369,43.590153 164.480499,43.818413 165.242737,43.818787 
	C204.187119,43.837906 243.131622,43.870914 282.075287,43.705616 
	C283.487640,43.699623 285.510803,42.021156 286.188171,40.612030 
	C288.625122,35.542549 290.632111,30.264500 292.753876,25.045858 
	C295.669525,17.874655 298.541718,10.685779 301.637207,2.996054 
	C272.729248,2.996054 244.614624,2.996054 215.500000,2.996054 
z"/>
<path fill="#F6E33B" opacity="1.000000" stroke="none" 
	d="
M405.608398,161.402710 
	C404.804260,162.202011 403.873993,162.946014 402.940521,162.950073 
	C387.108368,163.018692 371.275848,162.998932 355.443420,162.979828 
	C354.808716,162.979065 354.174225,162.792191 353.353271,162.662598 
	C350.529663,144.684128 347.707703,126.834190 344.930389,108.977295 
	C343.731873,101.271461 341.980957,98.781151 337.296356,98.413940 
	C332.806763,98.062019 330.042969,101.120064 327.958893,108.235054 
	C322.630707,126.425262 317.198883,144.585114 311.777252,162.862396 
	C293.042328,162.862396 274.391937,162.862396 255.070526,162.862396 
	C258.360321,154.792465 261.546112,146.932053 264.766785,139.085938 
	C274.536804,115.284782 284.423676,91.530685 294.011993,67.656654 
	C295.948090,62.836033 298.101837,60.698315 303.909119,60.799202 
	C330.066467,61.253632 356.236481,61.057030 382.401093,60.927841 
	C385.980377,60.910175 389.674164,60.351559 393.102142,59.329605 
	C397.527435,58.010307 399.295563,54.192616 398.752441,49.932396 
	C398.209839,45.676392 394.831512,43.981281 390.769928,43.933014 
	C382.772064,43.837967 374.772766,43.846016 366.774078,43.842129 
	C346.112030,43.832096 325.449982,43.838768 304.020142,43.838768 
	C308.151825,33.721622 312.127747,23.983437 316.109222,14.247509 
	C316.234497,13.941193 316.513519,13.672084 316.558197,13.362191 
	C317.961761,3.620063 324.136780,2.493253 332.798157,2.790499 
	C355.433105,3.567299 378.132294,2.715609 400.743988,3.801436 
	C409.089020,4.202169 417.916290,6.950478 425.372467,10.836699 
	C439.939362,18.429058 444.550873,32.230518 443.880920,47.860661 
	C442.704559,75.305496 422.879669,95.924828 395.091949,99.065811 
	C393.304230,99.267899 391.524628,99.542061 389.108215,99.868118 
	C394.638306,120.517357 400.059540,140.760223 405.608398,161.402710 
z"/>
<path fill="#F6E43B" opacity="1.000000" stroke="none" 
	d="
M535.000000,2.997904 
	C547.451416,2.997904 559.402832,2.997904 571.592773,2.997904 
	C571.592773,56.423424 571.592773,109.348282 571.592773,162.637787 
	C552.993774,162.637787 534.433716,162.637787 515.337219,162.637787 
	C516.942200,148.549072 518.546692,134.464615 520.211182,119.853333 
	C509.485504,119.853333 499.190186,119.758881 488.902710,119.999344 
	C487.873474,120.023399 486.457733,121.914619 485.955811,123.221375 
	C481.369904,135.160965 477.035034,147.197617 472.370483,159.105499 
	C471.749298,160.691238 469.713135,162.812988 468.304504,162.834076 
	C451.152618,163.091034 433.995514,163.000977 416.105560,163.000977 
	C419.599304,154.366135 422.880615,146.156082 426.237427,137.977005 
	C442.054932,99.436249 457.889526,60.902523 473.727997,22.370377 
	C475.936249,16.998083 478.422211,11.726683 480.344818,6.255767 
	C481.331085,3.449283 482.863647,2.932631 485.506226,2.948556 
	C501.836975,3.046967 518.168640,2.997941 535.000000,2.997904 
M504.333130,73.714783 
	C503.100098,77.224823 501.867035,80.734863 500.497833,84.632477 
	C508.753815,84.632477 516.337341,84.632477 524.410583,84.632477 
	C525.675415,73.698105 526.958374,62.859619 528.168884,52.013031 
	C528.620728,47.963932 528.242859,44.156013 523.344055,43.040005 
	C518.682678,41.978073 515.659302,44.212154 514.031860,48.436378 
	C510.879639,56.618408 507.835754,64.842178 504.333130,73.714783 
z"/>
<path fill="#F6E33B" opacity="1.000000" stroke="none" 
	d="
M96.782799,159.070084 
	C95.358490,160.625000 94.098358,162.842072 92.823898,162.850342 
	C62.845951,163.044937 32.866455,163.001190 2.524204,163.001190 
	C2.524204,109.730179 2.524204,56.690956 2.524204,3.323948 
	C21.740650,3.323948 40.967747,3.323948 60.689053,3.323948 
	C59.326229,16.065981 57.981796,28.723883 56.616779,41.379562 
	C54.101482,64.700020 51.574078,88.019180 49.052132,111.338921 
	C49.034225,111.504478 49.022385,111.670700 49.007282,111.836571 
	C48.326862,119.309464 49.378410,121.878548 53.554092,122.944931 
	C58.352428,124.170334 61.700428,121.663155 64.225914,114.899399 
	C70.560379,97.934410 76.880074,80.963890 83.207085,63.996113 
	C90.336975,44.875149 97.407768,25.731508 104.712997,6.677761 
	C105.304558,5.134813 107.492744,3.176399 108.964066,3.155262 
	C126.116127,2.908851 143.272995,2.997489 161.006943,2.997489 
	C156.065094,15.084906 151.278305,26.838432 146.456604,38.577625 
	C134.478745,67.739616 122.495155,96.899254 110.492325,126.050964 
	C106.005730,136.947723 101.459396,147.819870 96.782799,159.070084 
z"/>
<path fill="#F6E43B" opacity="1.000000" stroke="none" 
	d="
M150.887604,72.748505 
	C152.723892,62.144527 159.087692,60.564583 168.638199,60.744362 
	C202.953613,61.390316 237.288574,60.997849 271.616150,60.997849 
	C273.426636,60.997849 275.237152,60.997852 277.842377,60.997852 
	C274.209106,69.930557 270.842926,78.314568 267.386353,86.661140 
	C265.546783,91.103096 264.683350,97.294067 261.318451,99.395226 
	C257.687469,101.662521 251.650803,100.123230 246.662918,100.163055 
	C229.839417,100.297386 213.014206,100.308266 196.193207,100.583458 
	C192.945267,100.636589 189.559540,101.247017 186.511841,102.355194 
	C182.435852,103.837280 181.105438,107.860901 182.304703,111.392715 
	C183.135666,113.839867 186.167953,115.851616 188.655365,117.309242 
	C190.190948,118.209091 192.550140,117.808815 194.539856,117.811935 
	C212.536789,117.840118 230.533798,117.828430 248.530777,117.828445 
	C250.312622,117.828445 252.094467,117.828453 254.589981,117.828453 
	C248.181137,133.329803 242.053833,148.150223 235.953293,162.905899 
	C195.248001,162.905899 154.933914,162.905899 113.696999,162.905899 
	C126.156441,132.704407 138.450119,102.904701 150.887604,72.748505 
z"/>
<path fill="#F6E33B" opacity="1.000000" stroke="none" 
	d="
M216.000000,2.996054 
	C244.614624,2.996054 272.729248,2.996054 301.637207,2.996054 
	C298.541718,10.685779 295.669525,17.874655 292.753876,25.045858 
	C290.632111,30.264500 288.625122,35.542549 286.188171,40.612030 
	C285.510803,42.021156 283.487640,43.699623 282.075287,43.705616 
	C243.131622,43.870914 204.187119,43.837906 165.242737,43.818787 
	C164.480499,43.818413 163.718369,43.590153 162.468094,43.390125 
	C166.562607,33.185123 170.400574,23.356239 174.444016,13.612619 
	C178.863983,2.961682 178.946808,2.996053 190.535675,2.996055 
	C198.857117,2.996055 207.178558,2.996054 216.000000,2.996054 
z"/>
<path fill="#211A3A" opacity="1.000000" stroke="none" 
	d="
M504.540039,73.381714 
	C507.835754,64.842178 510.879639,56.618408 514.031860,48.436378 
	C515.659302,44.212154 518.682678,41.978073 523.344055,43.040005 
	C528.242859,44.156013 528.620728,47.963932 528.168884,52.013031 
	C526.958374,62.859619 525.675415,73.698105 524.410583,84.632477 
	C516.337341,84.632477 508.753815,84.632477 500.497833,84.632477 
	C501.867035,80.734863 503.100098,77.224823 504.540039,73.381714 
z"/>
</svg>